<?xml version="1.0" standalone="no"?>
<!DOCTYPE svg PUBLIC "-//W3C//DTD SVG 20010904//EN"
 "http://www.w3.org/TR/2001/REC-SVG-20010904/DTD/svg10.dtd">
<svg version="1.0" xmlns="http://www.w3.org/2000/svg"
 width="512.000000pt" height="512.000000pt" viewBox="0 0 512.000000 512.000000"
 preserveAspectRatio="xMidYMid meet">
<metadata>
Created by potrace 1.11, written by Peter Selinger 2001-2013
</metadata>
<g transform="translate(0.000000,512.000000) scale(0.100000,-0.100000)"
fill="#000000" stroke="none">
<path d="M2589 5080 c-1 -14 -1 -31 0 -39 2 -8 -2 -10 -11 -5 -9 5 -8 2 2 -11
14 -17 13 -18 -5 -11 -11 4 -16 4 -12 0 4 -4 0 -18 -8 -30 -11 -17 -12 -25 -3
-30 8 -5 6 -11 -5 -19 -9 -7 -18 -23 -21 -36 -2 -13 -9 -23 -15 -21 -15 3 -14
-4 5 -23 16 -15 16 -16 -2 -13 -14 2 -19 -3 -19 -22 -1 -14 -6 -24 -13 -22
-16 3 -15 -3 3 -22 13 -13 13 -15 -5 -21 -15 -5 -19 -13 -16 -31 3 -14 1 -22
-5 -19 -5 4 -6 11 -3 17 4 7 2 8 -5 4 -6 -4 -9 -12 -6 -17 4 -5 1 -9 -5 -9 -6
0 -8 -5 -5 -10 4 -6 11 -7 17 -4 7 4 8 2 4 -4 -4 -7 -15 -12 -24 -13 -11 0
-13 -2 -4 -6 10 -4 9 -9 -5 -20 -10 -8 -12 -12 -5 -8 7 4 12 0 12 -9 0 -10 -6
-13 -17 -9 -14 5 -16 3 -6 -7 9 -10 8 -16 -3 -27 -12 -12 -12 -18 -2 -31 11
-13 11 -14 -1 -7 -11 6 -13 4 -7 -10 6 -16 4 -16 -11 -4 -14 12 -16 12 -8 0 6
-11 4 -13 -8 -8 -11 4 -14 2 -11 -7 3 -8 2 -16 -3 -19 -4 -3 -9 7 -10 21 0 15
-6 28 -12 30 -6 2 -9 8 -5 13 3 5 0 9 -5 9 -6 0 -11 11 -11 25 0 14 -3 24 -7
24 -21 -3 -31 3 -29 17 0 9 -5 19 -13 22 -9 3 -11 0 -6 -8 5 -9 4 -11 -4 -6
-6 4 -9 10 -7 14 5 9 -20 33 -27 26 -3 -3 -4 3 -3 13 1 13 -5 18 -22 17 -12
-1 -22 4 -21 10 1 6 1 18 0 26 -1 13 -2 13 -11 0 -7 -11 -10 1 -10 39 0 49 -2
53 -13 36 -13 -16 -14 -15 -9 13 2 20 0 32 -7 32 -6 0 -10 5 -9 11 2 6 -6 13
-17 15 -24 4 -47 33 -38 48 4 6 -1 5 -10 -3 -15 -12 -17 -11 -17 8 0 15 -6 21
-22 21 -21 0 -21 1 -3 13 17 13 16 14 -6 13 -42 -2 -80 -50 -54 -68 6 -5 4 -8
-5 -8 -12 0 -15 -9 -12 -37 2 -21 10 -45 17 -53 20 -24 24 -47 12 -59 -9 -9
-8 -14 3 -21 9 -6 10 -10 3 -10 -6 0 -10 -9 -8 -19 3 -14 -1 -18 -11 -14 -8 3
-14 1 -14 -5 0 -6 6 -13 13 -15 7 -3 5 -6 -5 -6 -11 -1 -15 -6 -12 -16 4 -9 0
-15 -7 -15 -11 0 -11 -3 1 -10 13 -8 13 -10 -1 -10 -19 0 -34 -40 -16 -41 7 0
3 -4 -8 -9 -11 -5 -15 -9 -8 -9 6 -1 11 -15 11 -32 -1 -16 -4 -25 -8 -19 -5 8
-9 7 -13 -4 -4 -9 -1 -15 6 -13 7 1 12 -9 12 -23 0 -17 -5 -24 -15 -22 -11 3
-11 -1 3 -16 20 -22 17 -64 -4 -70 -10 -3 -11 -1 -2 5 9 6 7 12 -7 21 -16 10
-20 10 -20 0 0 -9 -3 -8 -10 2 -6 9 -5 17 3 22 7 4 -2 8 -22 8 -30 0 -32 2
-20 17 10 11 10 14 2 9 -7 -4 -13 -2 -13 3 0 6 -9 11 -20 11 -11 0 -20 5 -20
11 0 5 6 7 13 3 8 -5 7 -2 -2 9 -11 14 -17 15 -30 5 -9 -7 -13 -9 -9 -4 8 10
-15 36 -31 36 -10 0 -15 13 -13 31 1 4 -6 6 -16 5 -9 0 -16 5 -15 11 2 7 0 12
-5 12 -20 -3 -32 2 -26 12 4 7 1 10 -7 7 -8 -3 -18 5 -24 16 -6 12 -21 22 -33
24 -13 2 -22 11 -22 20 0 15 -2 15 -10 2 -9 -13 -10 -13 -11 0 -1 8 -1 21 0
28 1 6 -3 12 -9 12 -6 0 -8 -4 -5 -10 3 -5 -2 -10 -11 -10 -10 0 -15 3 -11 6
3 4 -1 13 -9 21 -8 8 -12 19 -9 23 3 5 -4 7 -15 5 -11 -2 -23 2 -27 8 -5 7
-16 18 -26 26 -15 12 -17 12 -11 -4 5 -12 4 -16 -3 -12 -14 9 -5 -32 11 -52 8
-11 8 -13 -1 -7 -8 4 -13 1 -13 -9 0 -10 5 -13 12 -9 7 5 8 3 2 -7 -4 -8 -10
-23 -11 -34 -2 -17 -1 -17 11 4 13 23 13 22 11 -13 -1 -20 -6 -40 -10 -44 -5
-4 -5 0 0 8 5 8 4 12 0 7 -5 -4 -10 -14 -11 -23 -2 -11 1 -12 11 -4 9 8 15 8
20 0 3 -5 0 -10 -7 -10 -9 0 -9 -3 2 -10 14 -9 7 -14 -15 -11 -5 1 -1 -6 10
-14 16 -12 17 -18 7 -24 -11 -6 -10 -10 4 -15 13 -5 15 -9 6 -18 -15 -15 -15
-28 -1 -28 5 0 7 5 3 12 -5 7 -3 8 5 3 9 -5 10 -10 2 -18 -14 -14 -14 -47 -1
-47 6 0 10 -5 10 -11 0 -5 -4 -8 -9 -4 -5 3 -13 1 -16 -5 -4 -6 -3 -10 2 -9
23 4 36 -2 27 -11 -14 -14 -5 -82 10 -73 8 5 8 3 0 -8 -17 -20 -11 -75 7 -72
19 4 22 -54 2 -61 -8 -3 -11 -11 -7 -17 4 -8 3 -9 -5 -5 -6 4 -9 12 -5 17 3 6
0 9 -8 7 -7 -1 -23 7 -35 19 -14 14 -29 20 -39 16 -11 -4 -15 -3 -10 5 3 6 1
14 -6 19 -21 12 -38 12 -38 0 0 -8 -4 -7 -9 2 -5 7 -15 10 -22 7 -8 -4 -5 0 6
10 18 15 18 16 1 10 -10 -3 -26 -1 -35 6 -13 10 -14 10 -3 -2 18 -21 14 -35
-5 -18 -32 27 -47 33 -40 15 4 -11 2 -14 -9 -10 -7 3 -14 10 -14 17 0 6 -5 4
-10 -4 -8 -12 -10 -12 -10 -1 0 11 -3 11 -17 0 -11 -10 -14 -10 -9 -1 4 7 1
12 -9 12 -10 0 -13 5 -9 13 5 7 0 6 -11 -3 -10 -8 -16 -10 -12 -4 6 11 -26 28
-45 25 -5 -1 -7 2 -7 7 4 23 -3 41 -17 46 -15 6 -15 4 -3 -11 12 -15 11 -15
-8 1 -13 10 -20 24 -16 30 4 7 2 7 -8 -1 -18 -15 -48 -11 -60 8 -7 11 -9 11
-9 -3 0 -10 -5 -18 -11 -18 -5 0 -8 4 -4 9 3 5 1 13 -5 16 -6 4 -9 1 -8 -7 2
-7 -3 -12 -11 -10 -12 3 -12 0 -1 -13 11 -13 10 -14 -5 -9 -13 5 -16 4 -11 -4
4 -7 15 -12 24 -12 15 0 15 -2 2 -10 -13 -9 -13 -10 0 -10 12 0 12 -2 2 -9
-11 -7 -11 -9 2 -14 10 -4 15 -18 14 -44 -1 -46 9 -73 28 -73 8 0 13 -3 13 -7
-4 -23 4 -31 26 -28 20 2 23 0 14 -11 -9 -11 -8 -14 5 -14 10 0 14 -4 11 -10
-3 -5 -1 -10 5 -10 7 0 9 -9 5 -22 -7 -23 -7 -23 9 -3 16 19 16 19 5 -7 -7
-15 -16 -25 -22 -21 -6 3 -7 1 -3 -5 4 -6 13 -9 20 -6 10 4 14 -2 12 -19 0
-14 -4 -23 -8 -21 -3 2 -4 -5 -1 -17 4 -13 11 -18 21 -14 12 4 13 3 2 -10 -7
-9 -8 -15 -2 -15 5 0 15 -13 21 -30 5 -16 13 -30 16 -30 3 0 3 5 -1 12 -4 7
-3 8 5 4 9 -6 9 -11 -1 -24 -10 -12 -10 -14 0 -8 7 4 12 1 12 -9 0 -9 4 -14 9
-11 15 10 20 -22 5 -34 -11 -10 -14 -10 -14 1 0 9 -3 10 -8 4 -4 -6 -22 -11
-40 -11 -28 0 -31 3 -26 21 6 19 5 19 -8 1 -13 -17 -15 -17 -31 -1 -12 12 -17
13 -17 3 0 -11 -2 -11 -9 0 -4 8 -21 13 -37 12 -16 -1 -33 -1 -39 0 -5 1 -23
1 -39 0 -21 -1 -26 2 -20 12 5 9 2 9 -11 -2 -17 -13 -18 -13 -13 1 5 13 -1 15
-30 13 -21 -1 -43 3 -51 9 -12 10 -13 9 -8 -7 6 -15 5 -17 -6 -8 -8 7 -17 9
-20 5 -4 -3 -7 -2 -7 4 0 6 -10 10 -23 9 -12 0 -21 4 -20 10 1 5 -9 10 -22 10
-14 0 -22 -2 -19 -6 3 -3 11 -5 17 -5 5 0 12 -7 14 -15 3 -10 2 -11 -4 -4 -4
6 -18 10 -31 9 -13 -1 -26 3 -29 8 -3 6 -1 7 5 3 7 -4 12 -3 12 2 0 5 -25 9
-55 9 -43 -1 -52 -4 -43 -14 6 -7 8 -13 4 -13 -3 0 2 -9 11 -19 9 -11 21 -17
27 -14 6 4 2 -4 -9 -16 -11 -12 -15 -22 -10 -21 22 5 34 -1 40 -20 4 -11 11
-18 16 -15 5 4 9 1 9 -5 0 -6 6 -8 13 -5 6 4 3 -1 -8 -10 -20 -17 -20 -17 3
-10 21 6 29 -6 23 -38 -1 -5 3 -6 9 -2 5 3 10 1 10 -5 0 -6 5 -8 12 -4 8 5 9
2 5 -10 -6 -14 -3 -17 9 -12 14 6 15 4 4 -9 -7 -9 -9 -15 -4 -13 5 2 10 -1 11
-5 2 -11 44 -47 55 -47 4 0 8 -4 8 -10 0 -5 -8 -7 -17 -4 -14 5 -15 4 -4 -4 8
-6 20 -8 28 -5 9 4 11 0 7 -11 -4 -10 0 -18 10 -22 9 -3 16 -16 17 -28 0 -20
1 -20 9 -1 l9 20 1 -20 c2 -11 2 -24 1 -28 -1 -4 6 -7 16 -5 11 2 19 -5 21
-17 2 -11 9 -24 14 -30 8 -7 8 -6 3 4 -6 10 -4 12 4 7 7 -5 10 -14 7 -22 -3
-8 -1 -14 3 -14 5 0 8 -11 7 -25 -1 -19 -4 -22 -11 -12 -11 13 -44 15 -64 3
-6 -4 -15 2 -20 16 l-10 23 -1 -25 c0 -20 -2 -22 -10 -10 -9 13 -10 13 -10 0
0 -13 -2 -13 -9 -1 -8 13 -12 13 -27 0 -11 -8 -15 -9 -10 -2 5 9 2 11 -8 7 -9
-3 -16 -10 -16 -15 0 -5 -5 -9 -11 -9 -5 0 -7 5 -4 10 3 6 1 10 -4 10 -6 0
-11 -7 -11 -15 0 -8 -9 -15 -21 -15 -11 0 -18 -4 -14 -9 3 -5 0 -13 -6 -17 -7
-4 -9 -3 -5 4 10 16 -14 26 -27 12 -9 -10 -9 -11 3 -5 13 8 13 6 2 -7 -13 -16
-28 -18 -48 -5 -6 3 -14 3 -18 -1 -9 -9 -76 -10 -76 -2 0 3 6 12 13 20 10 12
9 12 -5 1 -15 -11 -18 -11 -18 0 -1 8 -7 3 -15 -11 -13 -23 -14 -24 -15 -4 0
24 -22 26 -56 7 -12 -7 -25 -9 -29 -5 -3 4 -5 1 -3 -7 1 -7 -3 -16 -11 -19
-10 -3 -11 0 -5 9 6 12 5 12 -9 0 -10 -8 -15 -16 -13 -19 3 -2 1 -13 -5 -23
-5 -11 -6 -19 -2 -18 28 5 42 -2 36 -18 -4 -11 -3 -14 5 -9 7 4 12 2 12 -6 0
-10 3 -9 11 2 9 12 10 11 6 -7 -3 -16 0 -23 9 -23 8 0 14 -4 14 -10 0 -21 45
-50 77 -50 19 0 32 -4 28 -9 -3 -5 -1 -13 5 -16 6 -4 9 -1 8 6 -2 6 3 14 11
17 8 3 11 0 7 -7 -6 -10 6 -15 27 -12 4 0 7 -4 7 -10 0 -6 6 -9 14 -6 10 4 13
0 11 -14 -3 -15 0 -19 10 -15 8 3 15 1 15 -3 0 -5 -6 -12 -12 -14 -9 -4 -8 -6
2 -6 17 -1 50 -35 50 -51 0 -5 12 -13 28 -16 15 -4 32 -14 38 -22 7 -9 21 -13
37 -10 15 3 27 2 28 -1 0 -3 2 -14 4 -24 2 -10 -1 -14 -8 -10 -6 4 -8 0 -5 -9
6 -15 -4 -18 -50 -18 -14 0 -20 -4 -16 -11 4 -8 -1 -9 -16 -4 -15 5 -20 4 -16
-4 5 -7 -2 -11 -16 -12 -36 -2 -41 -3 -75 -18 -18 -7 -33 -18 -33 -23 0 -6 -6
-5 -15 2 -12 10 -14 8 -11 -7 3 -15 -2 -19 -27 -18 -20 1 -39 -6 -49 -17 -12
-14 -18 -16 -22 -6 -5 10 -7 10 -12 0 -3 -6 -11 -9 -17 -5 -7 4 -8 0 -4 -12 7
-17 6 -17 -19 -1 -25 17 -25 17 -15 -2 10 -18 8 -20 -20 -18 -21 2 -28 -2 -25
-11 4 -11 1 -11 -14 -3 -15 8 -20 8 -18 -1 2 -6 -3 -14 -11 -17 -9 -3 -11 0
-6 7 5 9 2 10 -11 2 -11 -5 -27 -12 -38 -15 -15 -5 -16 -9 -6 -21 9 -10 9 -15
1 -15 -6 0 -11 -5 -11 -11 0 -5 8 -9 17 -8 33 3 53 -1 53 -11 0 -5 -8 -7 -17
-3 -10 3 -15 3 -12 -1 9 -10 51 -17 45 -7 -3 4 1 8 9 8 8 0 12 -4 9 -8 -2 -4
4 -8 13 -8 40 -1 52 -5 50 -15 -1 -6 -6 -14 -12 -18 -5 -4 0 -6 12 -5 12 0 20
4 17 8 -2 4 1 11 7 15 7 4 9 3 6 -3 -4 -6 -1 -16 7 -22 11 -9 15 -9 19 1 3 7
6 2 6 -11 1 -24 1 -24 16 -5 10 12 14 14 13 4 -2 -8 6 -15 19 -16 12 -1 29 -9
38 -18 9 -9 21 -16 28 -16 6 0 2 7 -9 16 -16 14 -15 14 9 0 15 -9 33 -14 39
-10 7 5 9 2 5 -9 -3 -9 -1 -19 5 -23 6 -4 8 -3 4 4 -3 6 -2 13 4 17 5 3 10 -1
10 -9 0 -11 9 -16 26 -16 15 0 33 -8 40 -18 12 -15 15 -15 24 -2 8 13 10 12
11 -5 0 -11 3 -14 6 -7 2 6 10 9 16 5 7 -4 17 -8 22 -8 6 0 10 -10 9 -22 0
-12 3 -20 7 -17 4 2 10 0 13 -5 3 -5 -3 -11 -14 -14 -11 -3 -20 0 -20 6 0 8
-3 8 -9 -1 -4 -7 -14 -12 -22 -10 -8 2 -13 -2 -12 -8 1 -7 -11 -14 -27 -18
-17 -3 -29 -11 -28 -18 2 -7 -7 -14 -20 -16 -12 -2 -20 -8 -17 -13 4 -5 1 -17
-4 -26 -10 -17 -10 -17 -11 0 0 10 -4 16 -8 13 -5 -3 -8 -19 -7 -36 1 -23 -2
-30 -17 -30 -11 0 -16 -4 -13 -10 3 -5 1 -10 -5 -10 -7 0 -10 -7 -7 -15 5 -11
1 -12 -19 -5 -14 6 -23 6 -20 1 7 -11 -15 -30 -41 -34 -12 -2 -28 -8 -35 -15
-8 -6 -17 -9 -21 -6 -3 3 -14 1 -24 -6 -17 -11 -17 -11 0 -6 11 4 16 2 11 -5
-3 -6 -17 -9 -29 -7 -19 4 -22 1 -20 -19 2 -17 -2 -23 -11 -19 -7 3 -16 1 -19
-4 -4 -6 2 -10 12 -11 11 0 13 -3 5 -6 -6 -2 -9 -10 -6 -16 5 -8 2 -8 -7 1 -7
6 -17 12 -21 12 -11 0 14 -43 32 -55 20 -13 41 -15 34 -4 -3 5 2 9 10 9 9 0
16 -5 16 -11 0 -6 9 -9 20 -6 11 3 23 1 26 -4 3 -5 10 -6 16 -3 7 4 8 2 4 -5
-6 -9 -11 -9 -22 0 -10 8 -14 8 -14 0 0 -13 -1 -12 62 -15 26 -1 45 1 42 6 -3
5 -11 5 -17 2 -7 -4 -8 -3 -4 1 9 10 27 14 84 17 24 1 37 6 30 10 -7 4 -8 8
-4 8 4 0 19 -7 32 -16 17 -11 25 -12 25 -5 0 7 5 9 10 6 6 -4 8 -11 5 -16 -5
-8 16 -14 38 -10 4 0 7 -5 7 -12 0 -8 4 -7 10 3 5 8 10 10 10 5 0 -6 9 -11 20
-12 11 -1 20 3 20 8 0 6 5 7 11 4 5 -4 34 -7 62 -7 29 0 46 -2 39 -5 -10 -4
-10 -8 -1 -19 9 -11 9 -14 0 -14 -7 0 -9 -4 -6 -10 3 -5 1 -10 -5 -10 -6 0 -8
-4 -5 -10 3 -6 -1 -7 -10 -4 -11 4 -14 2 -9 -9 3 -8 0 -18 -7 -23 -7 -4 -10
-3 -6 3 3 5 0 10 -7 10 -8 0 -12 -10 -10 -24 1 -12 -3 -26 -8 -30 -7 -3 -8 -1
-4 5 4 7 2 12 -3 12 -6 0 -11 -7 -11 -16 0 -8 -4 -12 -10 -9 -6 3 -10 1 -10
-4 0 -6 5 -11 10 -11 6 0 10 -4 10 -10 0 -5 -7 -7 -15 -4 -8 4 -15 1 -15 -5 0
-6 -6 -10 -12 -8 -7 1 -12 -4 -11 -10 2 -7 -2 -13 -8 -13 -5 0 -8 -4 -4 -9 3
-6 -4 -15 -15 -21 -11 -6 -18 -15 -15 -21 4 -5 -1 -9 -9 -9 -9 0 -16 -7 -16
-15 0 -8 -5 -15 -11 -15 -6 0 -9 -7 -5 -15 3 -9 0 -15 -8 -15 -18 0 -47 -34
-49 -58 0 -11 -6 -18 -12 -15 -17 6 -38 -24 -31 -42 3 -9 2 -14 -3 -11 -4 3
-17 -2 -27 -10 -17 -14 -17 -15 -1 -10 11 3 16 2 12 -4 -3 -6 -12 -10 -20 -10
-17 0 -14 -26 5 -43 12 -10 12 -9 1 5 -11 15 -9 16 25 11 25 -4 35 -3 30 5 -3
6 -2 14 4 17 6 4 9 1 8 -6 -2 -6 3 -14 11 -17 8 -3 11 0 7 7 -4 6 -2 11 3 11
6 0 11 -4 11 -9 0 -11 26 -8 37 4 4 4 3 5 -4 1 -6 -3 -15 -2 -18 4 -4 7 3 9
22 7 15 -2 38 0 50 4 13 5 25 4 29 -2 4 -7 10 -7 18 0 9 7 17 7 26 -2 10 -10
12 -9 7 6 -5 14 -3 16 12 8 12 -7 22 -6 30 2 13 13 61 18 61 5 0 -4 5 -8 11
-8 5 0 7 5 4 10 -4 6 7 10 24 10 18 0 31 5 31 13 0 8 4 7 10 -3 8 -13 12 -13
32 -1 16 10 23 10 26 2 2 -6 8 -11 13 -11 6 0 7 5 4 10 -8 14 8 13 22 -1 9 -9
10 -6 6 12 l-6 24 19 -20 c10 -12 15 -16 11 -9 -4 7 -3 15 3 19 5 3 10 1 10
-5 0 -6 4 -9 9 -6 4 3 17 -1 27 -9 18 -15 18 -15 0 -8 -13 4 -17 2 -14 -8 2
-7 -5 -22 -16 -31 -20 -18 -20 -18 -1 -13 16 5 16 3 -2 -6 -13 -7 -23 -16 -23
-21 0 -5 5 -6 12 -2 7 5 8 3 3 -5 -4 -7 -16 -11 -26 -8 -16 4 -17 2 -8 -15 8
-15 8 -19 0 -14 -6 4 -11 0 -11 -9 0 -10 5 -13 13 -9 6 4 4 -2 -6 -13 -12 -14
-15 -23 -7 -28 12 -8 4 -25 -13 -25 -7 0 -6 4 3 10 9 6 10 10 3 10 -20 0 -22
-13 -8 -53 12 -34 11 -36 -3 -25 -13 11 -14 11 -8 0 4 -7 3 -19 -4 -27 -8 -10
-8 -15 1 -21 8 -5 9 -3 4 6 -6 9 -4 11 5 5 10 -6 10 -11 -3 -20 -9 -7 -14 -15
-10 -18 3 -4 -1 -7 -11 -7 -9 0 -15 -4 -11 -9 3 -5 1 -12 -5 -16 -6 -4 -7 -11
-4 -17 4 -7 0 -6 -13 1 -18 9 -20 7 -16 -17 4 -21 2 -24 -6 -12 -9 13 -11 13
-11 -2 0 -10 -4 -18 -8 -18 -10 0 -9 -30 2 -48 4 -7 4 -12 -1 -11 -18 3 -36
-1 -30 -8 4 -3 1 -13 -6 -21 -7 -10 -8 -13 -1 -9 7 4 18 -1 25 -10 10 -11 10
-14 2 -9 -9 5 -11 2 -7 -7 7 -18 33 -17 54 3 19 19 76 20 72 1 -1 -7 2 -10 8
-6 6 3 7 11 4 17 -5 7 -1 9 9 5 9 -3 19 -2 22 3 3 5 12 7 20 3 13 -5 20 13 16
40 0 4 4 7 9 7 6 0 10 -4 10 -10 0 -5 4 -10 10 -10 5 0 7 6 4 14 -3 7 2 16 10
19 9 4 16 13 16 21 0 10 6 13 17 9 12 -5 15 -2 11 8 -4 10 2 15 19 17 16 1 22
-2 17 -10 -4 -6 -3 -8 4 -4 5 3 12 1 14 -6 3 -7 7 -5 11 6 5 12 3 15 -6 10 -6
-4 -9 -3 -5 1 11 11 60 16 53 5 -3 -5 7 -3 21 5 15 8 32 11 38 8 6 -4 5 1 -3
11 -8 9 -10 16 -5 15 22 -4 35 2 28 14 -4 6 3 3 16 -8 13 -11 21 -15 18 -10
-4 6 2 22 13 35 10 14 19 19 19 12 0 -7 5 -10 10 -7 6 4 7 11 4 17 -4 7 -2 8
5 4 6 -4 9 -12 6 -17 -4 -5 -1 -9 6 -9 8 0 7 -5 -2 -17 -8 -9 -9 -14 -3 -10 6
3 11 0 11 -7 0 -9 -7 -12 -16 -8 -13 4 -12 1 2 -16 19 -20 18 -21 -5 -16 -23
5 -23 5 2 -11 14 -9 17 -14 8 -11 -10 3 -20 1 -23 -4 -4 -6 -1 -10 4 -10 6 0
11 -5 11 -11 0 -5 -5 -7 -11 -3 -6 3 -10 -1 -9 -12 6 -50 -1 -125 -10 -119 -5
3 -10 1 -10 -4 0 -6 5 -11 11 -11 5 0 7 -5 4 -10 -4 -6 -10 -8 -14 -6 -10 7
-8 -46 3 -63 6 -10 6 -12 -2 -7 -8 5 -11 -2 -8 -23 2 -17 -3 -42 -10 -56 -7
-14 -10 -24 -6 -21 4 2 8 -11 8 -29 0 -18 -4 -33 -9 -32 -5 1 -12 -4 -15 -12
-2 -8 0 -11 6 -7 6 3 9 -1 8 -11 -2 -9 -8 -19 -15 -21 -9 -3 -9 -7 0 -18 8
-10 8 -14 0 -14 -6 0 -11 -5 -11 -10 0 -6 15 -10 34 -8 19 1 34 4 34 7 0 4 1
9 2 14 1 4 3 13 4 20 1 6 10 11 20 9 12 -2 16 1 11 10 -6 10 -5 10 5 1 11 -10
16 -8 25 10 6 12 17 21 25 19 7 -2 10 3 7 12 -7 17 13 18 25 1 4 -6 8 -2 8 7
0 10 5 17 12 15 7 -1 12 5 13 13 0 8 7 15 15 15 8 0 20 11 26 23 16 32 34 50
34 34 0 -7 -4 -12 -10 -12 -5 0 -10 -5 -10 -12 0 -6 8 -3 20 7 11 10 17 22 13
28 -4 7 0 8 12 3 16 -6 16 -4 4 10 -13 16 -12 16 11 4 14 -7 22 -9 18 -5 -4 4
0 14 10 21 9 7 17 18 17 25 0 7 7 14 15 16 13 4 13 3 0 -6 -11 -8 -11 -11 -2
-11 7 0 15 7 18 15 4 8 10 12 16 9 5 -3 12 3 15 15 3 11 9 18 14 15 5 -3 9 1
9 9 0 16 27 30 41 21 13 -8 11 10 -3 26 -11 12 -10 12 4 2 9 -7 18 -9 20 -5 3
4 3 2 2 -5 -2 -6 2 -12 8 -12 9 0 9 -3 1 -11 -8 -8 -8 -20 -3 -35 6 -14 5 -26
-1 -29 -5 -4 -6 -11 -3 -17 5 -8 1 -9 -12 -5 -15 6 -13 3 5 -11 14 -12 20 -22
13 -26 -7 -4 -8 -17 -2 -35 4 -16 5 -32 2 -36 -4 -4 1 -13 11 -20 11 -8 19
-29 21 -54 4 -47 11 -60 20 -36 3 9 2 14 -3 10 -11 -6 -8 21 3 32 4 4 7 3 6
-2 -1 -6 -2 -12 0 -15 1 -3 3 -17 5 -33 3 -19 0 -25 -8 -20 -7 4 -6 0 2 -10
11 -14 11 -17 0 -17 -11 0 -11 -2 1 -10 10 -6 11 -10 3 -10 -7 0 -12 -6 -10
-13 1 -6 -4 -11 -12 -9 -11 2 -12 0 -3 -11 7 -8 8 -17 4 -21 -4 -4 -7 -25 -7
-47 -1 -31 3 -39 18 -39 10 0 17 -6 16 -12 -4 -33 2 -48 20 -48 11 0 22 -6 24
-12 4 -10 6 -10 6 0 1 7 6 10 12 6 7 -4 7 1 -1 16 -11 21 -10 22 8 18 16 -5
20 -2 17 14 -3 14 0 18 9 15 8 -3 17 -3 21 1 4 4 12 7 18 7 7 0 12 7 12 15 1
8 7 14 13 12 10 -2 10 2 1 20 -11 20 -10 21 3 11 12 -10 15 -10 15 0 1 6 2 37
4 67 1 30 4 49 7 42 2 -6 8 -12 13 -12 6 0 8 4 5 9 -11 18 6 40 39 51 25 8 32
15 28 27 -5 12 -3 14 7 8 9 -6 12 -4 8 7 -4 8 0 15 8 16 8 1 20 3 28 4 8 1 15
4 14 7 0 3 0 19 1 35 1 21 5 27 17 22 9 -4 13 -2 8 5 -4 6 0 15 7 20 9 5 10 9
2 9 -6 0 -9 8 -6 18 4 17 8 15 36 -12 19 -19 28 -34 22 -38 -6 -5 -5 -8 4 -8
8 0 11 -6 7 -16 -5 -14 -4 -15 8 -5 11 9 14 9 13 -1 -2 -57 4 -77 21 -71 14 5
13 3 -3 -10 -20 -16 -20 -16 5 -17 20 0 22 -2 10 -10 -11 -7 -11 -10 -2 -10 8
0 12 -9 10 -20 -2 -10 6 -26 17 -35 11 -9 13 -13 5 -9 -12 5 -12 4 -3 -6 6 -7
9 -19 6 -28 -4 -9 -2 -13 4 -9 6 4 14 0 17 -9 3 -8 2 -12 -3 -9 -5 3 -12 1
-16 -5 -3 -5 3 -10 14 -10 12 0 21 -5 21 -11 0 -5 -6 -7 -12 -3 -9 6 -9 3 1
-9 7 -9 11 -23 8 -32 -4 -8 -2 -17 4 -20 5 -4 6 -11 3 -17 -4 -7 -2 -8 5 -4 9
6 9 11 0 22 -8 10 -8 14 0 14 6 0 11 -3 12 -7 0 -5 3 -17 6 -28 2 -11 5 -30 6
-42 0 -13 5 -23 10 -23 5 0 7 7 4 15 -4 8 -2 17 2 20 5 2 8 -11 6 -30 -1 -20
2 -38 8 -42 5 -3 3 -9 -4 -14 -9 -6 -1 -9 24 -9 33 0 37 3 38 28 1 15 1 31 0
36 -1 5 4 6 12 3 15 -5 16 -1 20 54 1 29 6 36 19 34 11 -3 15 1 11 11 -3 8 3
24 13 35 18 20 18 21 -1 36 -16 13 -17 15 -2 10 9 -4 17 -2 17 4 0 6 4 8 8 5
5 -3 6 9 4 26 -4 24 -2 29 9 23 8 -5 5 2 -6 16 -11 13 -13 18 -5 12 21 -19 35
-16 19 4 -12 14 -12 16 0 8 11 -6 13 -3 9 13 -4 15 -2 22 8 22 8 0 11 6 7 17
-5 12 -3 14 8 8 11 -7 11 -5 -1 10 -9 11 -10 16 -2 11 7 -4 12 -2 12 6 0 8 5
19 12 26 10 10 16 35 21 93 1 13 25 18 47 9 3 -1 8 -2 11 -2 4 1 5 -12 4 -29
-2 -23 1 -29 12 -24 12 4 14 0 10 -15 -3 -13 3 -28 19 -42 13 -13 24 -30 24
-38 0 -13 1 -13 10 0 7 11 10 11 10 2 0 -8 5 -10 13 -6 9 6 9 5 0 -8 -15 -17
-7 -29 13 -21 8 3 14 -1 14 -10 0 -8 7 -18 16 -21 15 -6 15 -4 3 11 -11 14 -9
13 13 -2 14 -11 25 -24 25 -30 -1 -5 4 -9 11 -8 6 2 12 -4 12 -13 0 -9 -5 -12
-12 -8 -7 4 -8 3 -4 -4 4 -6 13 -9 22 -5 8 3 14 2 13 -3 -3 -19 1 -35 9 -30 7
4 12 -25 15 -81 0 -7 4 -10 9 -7 5 3 5 10 2 16 -4 7 -2 8 4 4 6 -4 8 -14 5
-23 -5 -12 -2 -15 10 -10 14 5 16 3 8 -12 -7 -13 -6 -18 4 -18 8 0 11 5 8 10
-4 6 -1 7 6 3 7 -5 10 -14 8 -20 -3 -7 0 -13 6 -14 7 0 22 -3 34 -6 13 -2 25
-1 28 5 4 5 0 9 -7 9 -9 0 -9 3 2 10 12 8 12 10 1 10 -8 0 -4 8 10 19 21 17
22 21 9 37 -8 10 -10 15 -5 12 6 -3 18 5 28 17 16 23 16 24 0 34 -16 9 -16 10
-1 11 12 0 15 7 13 27 -1 15 -8 29 -14 31 -9 3 -9 7 0 18 9 11 9 13 -2 9 -10
-4 -14 3 -13 27 0 18 -4 41 -9 52 -6 13 -6 16 2 12 7 -5 11 3 11 21 0 22 2 25
10 13 8 -12 10 -9 10 13 0 15 6 27 13 27 7 0 8 3 2 8 -6 4 -10 44 -10 89 0 79
1 83 23 83 12 0 22 -6 23 -12 0 -7 4 -4 9 7 8 18 9 18 10 -5 2 -14 2 -29 0
-35 -1 -5 4 -4 11 3 18 17 30 15 22 -5 -5 -12 -2 -15 8 -11 8 3 23 0 34 -8 10
-8 14 -14 9 -14 -6 0 -16 6 -24 12 -12 11 -12 10 -1 -4 7 -10 20 -18 28 -18 8
0 11 -4 8 -10 -3 -5 0 -7 8 -4 8 3 18 0 23 -7 5 -8 3 -10 -6 -4 -9 6 -11 4 -6
-4 5 -7 14 -10 22 -7 9 3 14 -2 14 -14 0 -15 7 -20 28 -21 15 0 21 -3 14 -6
-17 -7 -5 -23 19 -23 10 0 18 -5 16 -12 -1 -6 8 -14 21 -17 13 -3 23 -10 22
-15 -3 -14 29 -28 43 -20 7 5 6 0 -3 -11 -8 -10 -10 -16 -3 -12 6 4 14 1 16
-5 4 -10 6 -10 6 0 1 6 5 12 11 12 5 0 9 -3 9 -7 -1 -5 -1 -17 0 -27 1 -20 1
-20 16 0 13 18 14 18 8 -5 -5 -20 -3 -23 10 -18 12 4 14 2 10 -10 -4 -11 -2
-14 5 -9 7 4 12 2 12 -6 0 -9 3 -9 10 2 8 12 10 11 10 -7 0 -16 5 -20 20 -16
17 5 19 13 16 80 -2 60 -6 79 -21 89 -10 8 -15 14 -9 14 7 0 11 54 4 63 -1 1
-3 15 -4 30 -2 15 -8 33 -14 39 -15 15 -16 42 -2 33 6 -4 8 -11 5 -16 -4 -5
-1 -9 4 -9 15 0 14 16 -2 32 -7 7 -14 33 -16 58 -2 25 -8 48 -14 52 -8 5 -8 8
-1 8 6 0 11 7 11 15 0 8 -4 15 -8 15 -4 0 -10 7 -13 16 -5 13 -3 14 6 6 10 -8
13 -5 13 13 0 15 -3 21 -9 15 -16 -16 -29 -11 -15 6 10 13 10 17 0 24 -11 6
-11 9 0 13 9 4 10 6 2 6 -7 1 -10 8 -7 16 4 8 10 13 15 10 4 -3 24 -6 43 -7
29 -1 34 -4 24 -15 -6 -8 -7 -13 -2 -12 27 5 54 -3 54 -15 0 -18 16 -23 63
-21 20 1 37 -2 37 -7 0 -4 5 -8 11 -8 5 0 8 4 5 8 -3 5 3 8 12 7 9 0 18 -5 19
-10 0 -6 -3 -9 -9 -7 -5 1 -7 -2 -3 -8 4 -7 12 -7 26 0 13 8 19 7 19 0 0 -6 5
-8 10 -5 6 4 9 1 8 -7 -2 -7 2 -12 9 -11 8 2 10 -4 6 -14 -5 -13 -2 -15 12
-10 16 7 16 5 4 -10 -9 -11 -10 -14 -1 -9 6 4 12 3 12 -3 0 -6 7 -7 17 -4 11
4 14 3 9 -5 -4 -7 -4 -12 1 -13 4 0 17 -2 28 -4 20 -4 20 -4 1 11 -11 8 -15
14 -8 14 6 0 18 -10 26 -22 9 -12 16 -17 16 -10 0 13 21 12 32 -2 4 -6 14 -4
24 5 16 13 17 12 12 -8 -7 -25 13 -27 24 -3 5 12 7 11 7 -3 1 -21 22 -18 29 3
3 8 0 10 -9 6 -10 -5 -9 -3 1 6 17 15 13 105 -5 101 -5 -2 -10 3 -10 11 0 19
-25 47 -36 40 -5 -3 -12 2 -15 10 -3 9 -10 13 -15 10 -5 -3 -9 -2 -8 3 1 4 1
22 -1 38 -1 26 -3 27 -10 10 -7 -17 -9 -15 -9 11 -1 17 -4 34 -8 38 -12 12
-12 36 0 37 7 0 3 4 -8 9 -18 8 -18 9 -2 9 10 1 16 5 12 11 -3 5 -13 7 -23 4
-9 -3 -6 2 8 10 19 12 21 15 8 16 -17 0 -22 18 -21 67 0 6 -8 10 -19 8 -16 -3
-19 0 -15 15 3 11 1 20 -5 20 -5 0 -6 4 -3 10 3 6 -1 7 -9 4 -12 -5 -16 1 -16
21 0 18 4 24 13 19 9 -5 9 -3 -1 7 -11 12 -14 12 -22 -1 -6 -9 -10 -10 -10 -3
0 7 8 16 18 21 19 10 45 5 37 -8 -3 -5 0 -12 6 -16 8 -4 9 -3 5 4 -4 7 -2 12
4 12 6 0 8 5 4 13 -6 9 -5 9 7 0 8 -6 17 -11 21 -10 3 1 10 -1 14 -5 3 -4 -4
-5 -16 -3 -12 2 -20 1 -16 -2 15 -15 45 -12 49 5 4 16 5 16 6 0 1 -14 10 -18
39 -18 21 0 44 -6 51 -12 11 -10 13 -10 7 0 -5 7 -1 12 9 12 9 0 13 -5 9 -11
-4 -7 1 -7 16 1 19 10 22 10 18 -2 -5 -11 3 -14 32 -12 21 1 43 5 50 9 9 6 11
4 5 -5 -6 -10 -3 -12 14 -7 14 3 24 0 28 -9 3 -8 9 -11 14 -8 5 3 7 9 5 13 -3
4 8 5 24 3 21 -3 27 -8 23 -21 -5 -13 -3 -14 8 -3 16 15 33 16 23 0 -5 -7 -3
-8 7 -2 17 10 60 14 54 4 -3 -4 13 -7 35 -7 22 0 40 4 40 9 0 4 -4 8 -10 8 -5
0 -10 5 -10 11 0 5 6 7 13 3 8 -5 8 -2 -2 9 -7 9 -20 17 -28 17 -8 0 -12 4 -9
9 3 5 -1 12 -10 15 -9 4 -14 13 -10 21 3 8 0 14 -6 12 -7 -1 -17 8 -23 21 -5
12 -13 22 -18 22 -4 0 -6 -4 -2 -9 3 -5 1 -12 -4 -15 -4 -3 -8 2 -8 12 0 43
-3 51 -18 46 -11 -5 -13 -2 -9 10 3 9 1 16 -5 16 -6 0 -11 7 -11 15 0 8 -6 12
-14 9 -11 -4 -14 1 -12 20 3 23 1 24 -12 14 -9 -7 -13 -8 -9 -2 6 11 -28 46
-37 37 -3 -3 -3 4 -1 16 3 14 0 19 -7 15 -7 -5 -9 -2 -5 9 4 11 2 14 -9 10
-10 -3 -14 2 -14 18 0 19 -2 21 -10 9 -8 -12 -10 -11 -10 8 0 12 -5 22 -11 22
-5 0 -8 4 -4 9 3 5 0 13 -6 17 -8 4 -9 3 -5 -4 4 -7 2 -12 -3 -12 -10 0 -16
22 -12 44 1 5 -6 3 -16 -4 -10 -8 -15 -10 -11 -6 4 5 2 16 -5 24 -8 11 -8 13
0 9 7 -5 9 -1 6 12 -3 11 2 21 12 25 10 4 14 2 9 -6 -5 -7 -3 -8 6 -3 19 12
100 13 93 2 -3 -5 4 -4 15 2 11 6 28 8 36 5 11 -4 16 0 16 11 0 11 5 15 14 12
9 -4 21 5 31 19 10 15 21 22 28 17 20 -12 37 -12 37 0 0 8 3 7 9 -1 4 -8 11
-13 15 -13 18 3 27 0 22 -7 -2 -4 7 -12 20 -19 13 -6 22 -7 18 -2 -3 5 7 9 21
9 14 0 24 -4 21 -9 -4 -5 5 -4 19 2 15 8 23 18 20 26 -4 11 -1 11 13 -2 21
-19 32 -22 32 -6 0 5 -4 7 -10 4 -5 -3 -10 0 -10 7 0 8 9 14 19 14 11 0 17 -5
13 -11 -3 -5 2 -4 11 3 9 8 25 11 35 8 23 -8 36 25 18 45 -8 9 -7 10 4 4 8 -4
2 4 -14 17 -16 14 -26 30 -22 36 3 6 1 14 -5 18 -8 4 -9 3 -5 -4 4 -7 2 -12
-3 -12 -6 0 -11 5 -11 10 0 6 -11 10 -25 10 -19 0 -23 4 -18 18 5 14 3 14 -11
-3 -10 -11 -15 -14 -11 -7 4 7 0 12 -10 12 -10 0 -13 -5 -9 -13 4 -7 3 -9 -2
-4 -5 5 -9 14 -9 20 0 5 -9 11 -21 12 -12 1 -32 12 -45 25 -18 17 -20 21 -6
17 11 -4 16 -3 12 3 -3 6 -13 10 -21 10 -12 0 -19 13 -11 24 4 8 -36 45 -47
43 -6 -1 -10 4 -8 12 2 11 0 12 -11 3 -12 -10 -14 -8 -11 13 2 21 0 24 -11 15
-10 -8 -15 -8 -21 1 -5 8 -3 9 6 4 9 -5 11 -4 6 4 -4 6 -13 11 -19 10 -27 -3
-37 2 -38 19 0 15 -1 14 -8 -2 -7 -19 -8 -19 -13 1 -4 16 -12 20 -34 17 l-28
-3 25 22 c14 12 19 18 12 13 -17 -11 -17 8 0 23 10 7 17 7 24 0 7 -7 13 -8 17
0 4 5 13 8 21 4 10 -3 13 -1 10 9 -4 9 0 15 9 15 8 0 13 -4 10 -9 -3 -4 0 -8
5 -8 11 0 15 15 11 35 -1 6 4 4 11 -2 17 -17 32 -16 26 0 -4 10 2 13 20 9 15
-3 23 -1 20 5 -5 8 13 12 67 13 18 1 18 1 0 15 -17 13 -16 13 14 9 22 -4 32
-1 32 8 0 10 3 9 11 -2 9 -12 10 -12 6 5 -3 17 1 20 27 19 37 -1 56 5 56 18 0
5 -5 6 -12 2 -6 -4 -8 -3 -4 4 3 6 16 9 28 7 12 -3 27 0 33 5 6 5 21 8 34 5
12 -2 19 0 16 6 -4 5 -12 6 -18 3 -7 -4 -9 -4 -5 1 5 5 22 10 40 12 39 4 44 9
29 27 -10 11 -8 17 6 26 11 7 12 9 3 7 -8 -2 -24 3 -34 12 -11 9 -16 11 -13 4
5 -8 0 -11 -13 -10 -20 1 -27 12 -12 20 4 2 2 2 -5 1 -6 -2 -14 2 -17 9 -3 9
-5 9 -5 0 -1 -9 -9 -9 -31 -2 -17 6 -27 16 -23 22 4 6 0 8 -10 4 -9 -3 -18 1
-21 10 -5 12 -9 13 -20 4 -10 -8 -16 -9 -21 -1 -3 5 0 10 7 10 11 0 11 2 0 9
-7 4 -24 6 -38 3 -13 -2 -24 0 -24 6 0 6 -9 8 -20 5 -11 -3 -20 0 -20 6 0 6
-7 11 -16 11 -9 0 -12 5 -8 13 6 9 4 9 -7 0 -19 -19 -29 -16 -29 10 -1 20 -2
20 -11 5 -5 -10 -14 -18 -19 -18 -6 0 -10 8 -10 18 0 15 2 15 11 2 9 -13 10
-13 6 0 -2 11 -15 14 -43 12 -29 -2 -35 0 -24 7 17 12 16 12 -48 15 -18 1 -40
10 -50 21 -9 10 -11 15 -4 11 6 -4 12 -3 12 3 0 5 -6 12 -12 14 -10 4 -10 6 0
6 7 1 11 5 8 9 -3 5 1 9 9 9 8 0 15 -4 15 -9 0 -5 5 -6 11 -3 6 4 8 12 6 19
-4 10 6 14 49 18 6 1 9 11 7 22 -3 12 -1 17 4 11 15 -18 31 -15 26 5 -4 14 0
20 11 20 9 0 16 5 16 11 0 5 5 7 11 3 7 -4 6 2 -2 17 -11 21 -11 23 3 11 13
-10 17 -9 23 5 5 10 8 21 7 25 -1 4 5 5 13 2 10 -4 13 -2 10 8 -4 9 2 14 15
15 11 1 18 -2 15 -7 -3 -5 7 -3 21 5 15 8 32 11 37 8 5 -3 19 5 29 18 11 13
17 17 13 9 -3 -8 0 -6 7 4 7 10 21 26 31 35 9 8 17 21 17 28 0 7 6 13 13 13 8
0 7 4 -3 10 -11 8 -8 9 12 4 24 -5 27 -3 23 14 -2 14 1 19 9 16 10 -4 12 2 8
21 -2 15 -7 23 -11 18 -8 -12 -28 -10 -41 3 -8 8 -6 11 4 11 8 0 12 -5 9 -10
-4 -6 -1 -7 6 -3 14 9 7 19 -16 22 -52 8 -88 7 -86 -2 1 -6 -4 -11 -12 -11 -8
0 -12 3 -10 7 2 4 -2 7 -10 7 -8 0 -12 -3 -10 -6 2 -4 -8 -11 -21 -18 -14 -7
-26 -7 -30 -2 -3 5 0 8 7 7 6 -2 14 4 16 12 4 13 3 13 -6 0 -6 -8 -11 -10 -11
-5 0 6 -7 2 -14 -8 -8 -11 -17 -14 -20 -8 -4 5 -15 8 -26 6 -12 -2 -18 0 -15
5 3 5 14 7 25 5 11 -2 22 0 24 4 3 4 -18 7 -45 6 -28 0 -53 3 -56 8 -2 4 -9 4
-15 1 -7 -4 -8 -2 -4 5 6 9 12 9 24 -1 15 -12 16 -11 3 4 -8 11 -22 16 -37 14
-13 -3 -26 0 -30 5 -3 5 -10 6 -16 3 -6 -4 -18 2 -26 12 -13 16 -14 17 -9 2 4
-12 1 -18 -9 -18 -8 0 -13 4 -9 9 3 5 0 13 -6 17 -8 5 -9 3 -4 -6 6 -10 4 -12
-8 -7 -10 4 -14 2 -11 -6 3 -8 -9 -11 -41 -10 -50 2 -65 8 -65 26 0 7 4 6 10
-3 10 -16 14 -8 10 23 -1 9 2 17 7 16 23 -4 32 2 26 18 -5 12 -2 15 10 10 12
-4 14 -2 10 10 -4 11 -3 14 6 9 6 -4 11 -4 10 1 -3 20 2 34 11 28 6 -3 10 1
10 10 0 9 4 14 9 11 5 -3 11 1 14 9 4 10 1 12 -11 9 -9 -2 -7 1 6 7 12 7 22
18 22 25 0 7 5 16 12 20 7 5 8 3 3 -7 -8 -12 -6 -12 9 0 13 11 14 16 4 22 -9
6 -6 9 10 9 13 0 20 4 17 10 -3 6 -1 10 4 10 6 0 11 5 11 11 0 5 -6 7 -12 3
-9 -5 -9 -2 1 9 15 18 26 23 16 7 -3 -5 -1 -10 4 -10 6 0 11 7 11 15 0 8 7 15
16 15 8 0 12 5 9 10 -3 6 -1 10 5 10 6 0 8 5 5 11 -4 6 2 19 14 30 12 11 18
26 15 37 -5 14 -4 14 4 2 6 -8 8 -18 5 -24 -3 -5 -1 -6 5 -2 7 4 12 16 12 27
0 10 5 19 11 19 5 0 7 4 4 10 -3 6 1 7 10 4 11 -5 14 -2 8 12 -4 12 -3 15 5
10 7 -4 12 -2 12 3 0 6 -5 11 -12 11 -6 0 -8 3 -5 6 4 4 13 1 21 -5 12 -10 14
-9 11 6 -2 10 -4 21 -4 25 -1 4 -27 6 -58 5 -38 -2 -57 -7 -56 -15 2 -7 -4 -9
-14 -5 -12 5 -14 3 -8 -7 5 -9 4 -11 -4 -6 -9 6 -9 11 1 24 11 12 8 12 -14 -2
-30 -20 -78 -28 -78 -14 0 5 -5 6 -10 3 -6 -4 -7 -11 -4 -17 5 -7 2 -8 -7 -3
-19 12 -79 13 -86 1 -3 -5 -1 -6 5 -2 6 3 13 3 16 -2 3 -5 -12 -9 -32 -9 -99
-2 -103 -3 -96 -15 6 -10 4 -10 -7 -2 -21 17 -51 14 -44 -5 5 -13 4 -13 -12 1
-18 16 -56 21 -47 7 2 -5 11 -6 19 -2 8 3 15 0 15 -7 0 -8 -9 -10 -24 -6 -15
4 -26 1 -29 -7 -4 -9 -6 -9 -6 1 -1 6 -6 12 -12 12 -5 0 -7 -4 -4 -10 3 -5 1
-10 -4 -10 -6 0 -11 5 -11 11 0 8 -4 8 -14 0 -11 -9 -15 -8 -20 4 -3 9 -2 13
4 10 9 -6 11 -2 14 35 1 8 8 14 16 12 11 -3 11 0 -1 14 -12 16 -12 17 4 11 10
-4 17 -2 17 5 0 7 10 23 23 36 12 14 16 22 10 18 -7 -4 -13 -2 -13 4 0 6 -5 8
-12 4 -7 -4 -8 -3 -4 4 4 6 14 8 24 5 15 -6 15 -5 3 10 -9 11 -10 17 -2 17 7
0 10 10 7 26 -4 21 -2 25 12 20 15 -5 15 -4 -1 8 -14 10 -15 15 -5 19 10 4 10
6 1 6 -7 1 -13 6 -13 12 0 6 7 9 15 5 8 -3 14 -2 14 2 -1 4 2 17 6 30 7 21 12
24 45 26 15 1 16 5 19 46 0 11 6 20 12 20 5 0 7 -6 3 -12 -4 -8 -3 -9 2 -5 5
5 9 30 10 58 0 27 4 52 7 56 4 3 1 13 -6 21 -10 13 -9 14 8 4 19 -10 21 -7 22
24 1 30 -1 33 -15 22 -13 -11 -14 -11 -8 0 6 10 -4 13 -47 11 -40 -2 -54 -6
-50 -15 3 -9 -2 -12 -16 -9 -14 3 -19 0 -15 -7 5 -8 1 -9 -11 -4 -16 6 -16 4
-4 -11 9 -11 10 -14 2 -9 -8 4 -13 2 -13 -4 0 -6 -5 -8 -12 -4 -7 5 -9 2 -5
-9 6 -17 -24 -34 -42 -23 -5 3 -14 -1 -21 -9 -7 -8 -17 -12 -23 -8 -5 3 -7 2
-4 -3 3 -6 -4 -16 -16 -24 -20 -12 -21 -12 -9 3 12 15 10 16 -17 14 -17 -1
-29 -7 -27 -13 5 -12 -30 -12 -41 1 -5 4 -2 5 6 0 10 -6 12 -4 7 4 -8 13 -21
6 -21 -10 0 -5 -4 -8 -10 -7 -5 2 -9 7 -7 13 2 5 -9 -1 -24 -15 -15 -14 -24
-19 -19 -11 5 9 4 12 -3 7 -7 -4 -12 -14 -12 -22 0 -12 -25 -19 -52 -15 -4 0
-5 -6 -2 -14 4 -8 1 -15 -6 -15 -6 0 -9 -4 -6 -8 3 -5 -8 -8 -23 -8 -25 0 -27
3 -27 37 1 27 4 35 13 28 7 -7 14 -6 19 2 4 8 3 9 -4 5 -13 -8 -17 6 -5 18 12
12 13 46 1 46 -9 0 -9 3 0 12 7 7 12 32 12 56 0 32 3 41 13 36 7 -5 6 0 -3 11
-14 17 -13 18 5 12 20 -7 20 -7 1 8 -11 8 -16 15 -12 15 5 0 2 8 -5 18 -10 13
-8 12 10 -3 l24 -20 -12 23 c-8 14 -8 22 -1 22 5 0 10 5 10 11 0 5 -4 8 -9 4
-5 -3 -13 0 -17 6 -4 8 -3 9 4 5 16 -10 32 26 21 47 -7 11 -6 17 1 17 11 0 9
22 -3 31 -5 4 2 17 15 29 14 14 17 21 7 17 -10 -3 -16 1 -16 9 0 8 6 13 13 10
8 -3 11 6 8 30 -2 19 2 34 8 34 7 0 7 5 -1 14 -9 11 -9 15 1 19 9 4 10 6 1 6
-7 1 -10 7 -7 15 4 11 0 13 -15 9 -16 -4 -19 -9 -11 -18 8 -9 4 -12 -15 -9
-35 3 -62 -25 -56 -59 1 -5 -3 -6 -9 -2 -6 3 -8 10 -5 15 3 5 1 12 -5 15 -6 4
-10 3 -9 -2 4 -21 -2 -33 -16 -33 -8 0 -14 -3 -14 -7 3 -20 -2 -24 -16 -13
-13 11 -14 10 -10 -2 3 -8 -1 -21 -10 -28 -13 -11 -15 -10 -10 6 4 12 1 11 -6
-4 -7 -13 -18 -21 -26 -18 -7 3 -12 2 -12 -2 3 -17 -2 -32 -8 -31 -20 3 -34
-2 -28 -11 3 -5 1 -10 -5 -10 -6 0 -8 -4 -5 -10 3 -6 -1 -7 -10 -4 -11 4 -14
2 -9 -9 3 -8 0 -18 -7 -23 -8 -4 -10 -3 -5 4 4 7 4 12 -1 12 -13 0 -35 -17
-35 -26 0 -5 -4 -16 -10 -24 -8 -12 -9 -12 -4 3 3 9 1 17 -4 17 -6 0 -10 -5
-10 -11 0 -5 -4 -8 -9 -5 -5 3 -8 -2 -7 -11 0 -9 -5 -18 -13 -21 -8 -3 -11 0
-7 7 4 6 2 11 -4 11 -6 0 -10 -6 -8 -12 2 -7 -2 -14 -7 -16 -6 -2 -14 -10 -18
-18 -5 -8 -12 -12 -18 -9 -5 4 -6 -2 -2 -11 4 -11 3 -15 -4 -11 -6 4 -19 0
-27 -9 -18 -17 -18 -18 -20 49 0 26 3 47 9 47 5 0 4 4 -3 9 -15 9 -15 20 -1
38 7 7 6 13 0 17 -5 4 -8 15 -6 26 2 12 0 18 -6 15 -5 -4 -6 -12 -3 -18 4 -7
3 -8 -2 -4 -9 9 -11 14 -13 48 -1 13 -5 18 -13 13 -8 -5 -7 0 2 11 14 17 13
18 -2 12 -10 -3 -17 -3 -17 1 1 4 0 9 -1 12 -1 3 -3 15 -4 28 -2 16 3 22 16
22 10 0 18 5 18 11 0 5 -4 8 -9 4 -5 -3 -13 0 -17 6 -4 7 -3 9 4 5 6 -3 13 -2
17 4 3 5 0 10 -7 10 -10 0 -10 2 1 9 17 11 17 101 0 112 -6 4 -8 12 -5 18 4 6
0 14 -9 17 -11 5 -14 15 -11 35 3 18 0 29 -7 29 -7 0 -6 5 3 10 13 9 13 10 0
11 -8 0 -23 2 -32 4 -9 2 -23 -4 -30 -13 -11 -13 -11 -14 1 -7 9 5 12 4 7 -3
-4 -6 -13 -9 -21 -5 -8 3 -15 0 -15 -7 0 -6 -5 -8 -12 -4 -9 5 -8 2 1 -9 12
-15 12 -17 -3 -11 -13 5 -16 -1 -17 -27 -1 -19 0 -41 1 -49 1 -10 -3 -9 -14 5
-15 19 -15 19 -10 -8 3 -17 1 -26 -5 -23 -5 3 -7 -3 -4 -14 3 -12 2 -20 -3
-18 -5 2 -9 -1 -9 -7 0 -5 5 -8 10 -7 5 2 6 0 2 -5 -8 -8 -12 -9 -38 -12 -6 0
-8 -8 -5 -17 5 -14 4 -15 -8 -5 -11 9 -16 9 -22 0 -5 -8 -3 -10 7 -5 8 4 3 -2
-10 -14 -13 -11 -31 -18 -38 -16 -8 3 -11 1 -8 -5 11 -16 -24 -59 -48 -59 -22
-1 -22 -1 -2 -16 16 -13 17 -15 3 -12 -9 2 -18 -1 -19 -7 -1 -5 -9 -16 -16
-23 -7 -8 -11 -17 -8 -22 3 -5 1 -11 -4 -14 -5 -3 -7 -16 -4 -29 3 -16 2 -18
-5 -9 -13 18 -17 19 -34 5 -12 -10 -15 -10 -15 2 0 8 4 12 9 9 13 -8 9 6 -6
22 -8 7 -12 23 -9 34 3 12 -1 22 -11 26 -9 3 -16 10 -16 16 0 5 5 6 11 2 6 -3
3 5 -6 19 -9 14 -16 29 -15 32 1 4 -2 10 -6 13 -4 4 -4 2 0 -5 3 -6 2 -14 -3
-17 -15 -10 -6 25 10 35 10 7 7 8 -11 3 -23 -6 -24 -6 -10 11 12 15 12 17 1
10 -11 -6 -13 -3 -9 13 6 23 -7 31 -15 10 -4 -8 -6 -7 -6 4 -1 9 7 19 17 21
16 4 16 5 0 6 -18 1 -19 4 -22 40 0 11 -5 23 -10 28 -5 5 -6 2 -1 -6 6 -10 4
-12 -4 -7 -9 6 -9 11 0 22 6 8 9 17 5 21 -3 3 -6 1 -6 -6 0 -7 -5 -9 -11 -6
-6 4 -8 13 -5 21 3 8 -4 23 -16 34 -12 11 -19 23 -15 26 4 4 1 14 -6 22 -10
13 -9 14 1 8 10 -6 10 -2 0 18 -6 14 -15 26 -20 26 -5 0 -8 8 -7 18 1 9 1 22
0 28 -1 16 -41 25 -41 11 0 -7 -5 -5 -10 3 -8 12 -10 10 -11 -10z m76 -69 c3
-5 2 -12 -3 -15 -5 -3 -9 1 -9 9 0 17 3 19 12 6z m-703 -48 c-6 -2 -9 -10 -6
-15 4 -7 2 -8 -5 -4 -13 9 -5 26 12 25 9 0 8 -2 -1 -6z m-517 -232 c3 -5 1
-12 -5 -16 -5 -3 -10 1 -10 9 0 18 6 21 15 7z m2365 -11 c0 -5 -2 -10 -4 -10
-3 0 -8 5 -11 10 -3 6 -1 10 4 10 6 0 11 -4 11 -10z m-2235 -90 c3 -6 -1 -7
-9 -4 -18 7 -21 14 -7 14 6 0 13 -4 16 -10z m1250 -30 c3 -5 1 -10 -4 -10 -6
0 -11 5 -11 10 0 6 2 10 4 10 3 0 8 -4 11 -10z m1311 -342 c4 -7 3 -8 -4 -4
-7 4 -12 2 -12 -5 0 -7 -3 -10 -6 -6 -6 5 3 27 11 27 2 0 7 -5 11 -12z m-340
-13 c-3 -20 -16 -31 -16 -13 0 13 8 28 16 28 1 0 1 -7 0 -15z m-2341 -14 c3
-5 2 -12 -3 -15 -5 -3 -9 1 -9 9 0 17 3 19 12 6z m-125 -31 c0 -5 -5 -10 -11
-10 -5 0 -7 5 -4 10 3 6 8 10 11 10 2 0 4 -4 4 -10z m2870 -284 c0 -3 -4 -8
-10 -11 -5 -3 -10 -1 -10 4 0 6 5 11 10 11 6 0 10 -2 10 -4z m-3425 -96 c-3
-5 -12 -10 -18 -10 -7 0 -6 4 3 10 19 12 23 12 15 0z m86 -473 c-10 -9 -11 -8
-5 6 3 10 9 15 12 12 3 -3 0 -11 -7 -18z m-511 -58 c0 -5 -4 -8 -9 -4 -5 3
-12 1 -16 -5 -3 -5 -11 -10 -18 -10 -6 0 -2 7 9 15 23 17 34 19 34 4z m228
-504 c-2 -1 -19 -5 -38 -8 -34 -6 -34 -6 -11 7 14 8 31 12 38 9 8 -3 13 -7 11
-8z m4276 -60 c-4 -8 -11 -12 -16 -9 -6 4 -5 10 3 15 19 12 19 11 13 -6z
m-129 -505 c3 -5 2 -10 -4 -10 -5 0 -13 5 -16 10 -3 6 -2 10 4 10 5 0 13 -4
16 -10z m-4427 -268 c-8 -9 -14 -9 -24 -1 -18 15 -18 14 10 14 18 0 22 -3 14
-13z m235 -487 c-3 -9 -8 -14 -10 -11 -3 3 -2 9 2 15 9 16 15 13 8 -4z m3404
-420 c0 -8 -4 -12 -9 -9 -5 3 -6 10 -3 15 9 13 12 11 12 -6z m392 -8 c8 -10 7
-14 -4 -14 -8 0 -15 6 -15 14 0 7 2 13 4 13 2 0 9 -6 15 -13z m-3429 -117 c0
-5 -5 -10 -11 -10 -5 0 -7 5 -4 10 3 6 8 10 11 10 2 0 4 -4 4 -10z m535 -140
c3 -6 -1 -7 -9 -4 -18 7 -21 14 -7 14 6 0 13 -4 16 -10z m959 -86 c7 -19 2
-18 -19 6 -16 17 -16 20 -3 15 9 -4 19 -13 22 -21z m-774 -50 c0 -8 -19 -13
-24 -6 -3 5 1 9 9 9 8 0 15 -2 15 -3z m1203 -9 c4 -8 3 -16 -1 -19 -4 -3 -9 4
-9 15 -2 23 3 25 10 4z m-528 -14 c3 -5 2 -12 -3 -15 -5 -3 -9 1 -9 9 0 17 3
19 12 6z m1560 -23 c-7 -32 -13 -32 -11 1 0 16 4 27 8 25 4 -2 5 -14 3 -26z
m-2280 12 c3 -6 -1 -7 -9 -4 -18 7 -21 14 -7 14 6 0 13 -4 16 -10z m1720 -50
c3 -6 -1 -7 -9 -4 -18 7 -21 14 -7 14 6 0 13 -4 16 -10z m3 -45 c-3 -3 -9 2
-12 12 -6 14 -5 15 5 6 7 -7 10 -15 7 -18z m26 -85 c-6 -6 -10 -3 -10 10 0 13
4 16 10 10 7 -7 7 -13 0 -20z m-1362 -37 c-6 -3 -10 -9 -7 -14 4 -5 2 -17 -4
-26 -8 -15 -9 -12 -6 12 2 17 4 32 5 35 2 3 2 10 0 15 -1 6 5 4 12 -4 10 -11
10 -14 0 -18z m1368 -7 c0 -3 -4 -8 -10 -11 -5 -3 -10 -1 -10 4 0 6 5 11 10
11 6 0 10 -2 10 -4z m-609 -29 c-10 -9 -11 -8 -5 6 3 10 9 15 12 12 3 -3 0
-11 -7 -18z m579 -36 c0 -6 -4 -13 -10 -16 -5 -3 -10 1 -10 9 0 9 5 16 10 16
6 0 10 -4 10 -9z m-633 -76 c0 -8 -4 -12 -9 -9 -5 3 -6 10 -3 15 9 13 12 11
12 -6z"/>
<path d="M1934 4795 c1 -24 4 -31 12 -24 7 5 10 19 7 30 -9 33 -20 30 -19 -6z"/>
<path d="M1930 4741 c0 -6 4 -12 8 -15 5 -3 9 1 9 9 0 8 -4 15 -9 15 -4 0 -8
-4 -8 -9z"/>
<path d="M2970 4685 c-7 -9 -10 -18 -7 -21 3 -3 10 4 17 15 13 25 8 27 -10 6z"/>
<path d="M3287 4669 c7 -7 15 -10 18 -7 3 3 -2 9 -12 12 -14 6 -15 5 -6 -5z"/>
<path d="M1040 4306 c0 -2 7 -9 15 -16 13 -11 14 -10 9 4 -5 14 -24 23 -24 12z"/>
<path d="M875 4240 c3 -5 8 -10 11 -10 2 0 4 5 4 10 0 6 -5 10 -11 10 -5 0 -7
-4 -4 -10z"/>
<path d="M1438 4183 c7 -3 16 -2 19 1 4 3 -2 6 -13 5 -11 0 -14 -3 -6 -6z"/>
<path d="M4450 3360 c0 -5 5 -10 11 -10 5 0 7 5 4 10 -3 6 -8 10 -11 10 -2 0
-4 -4 -4 -10z"/>
<path d="M5095 2610 c21 -24 26 -25 19 -6 -3 8 -13 17 -22 21 -13 5 -13 2 3
-15z"/>
<path d="M267 2549 c7 -7 15 -10 18 -7 3 3 -2 9 -12 12 -14 6 -15 5 -6 -5z"/>
<path d="M495 2200 c-3 -5 -1 -10 4 -10 6 0 11 5 11 10 0 6 -2 10 -4 10 -3 0
-8 -4 -11 -10z"/>
<path d="M4966 2048 c3 -5 10 -6 15 -3 13 9 11 12 -6 12 -8 0 -12 -4 -9 -9z"/>
<path d="M4646 1953 c-11 -11 -7 -20 9 -20 8 0 15 4 15 8 0 11 -16 20 -24 12z"/>
<path d="M4706 1938 c3 -4 9 -8 15 -8 5 0 9 4 9 8 0 5 -7 9 -15 9 -8 0 -12 -4
-9 -9z"/>
<path d="M795 1410 c-3 -5 -1 -10 4 -10 6 0 11 5 11 10 0 6 -2 10 -4 10 -3 0
-8 -4 -11 -10z"/>
<path d="M655 1380 c3 -5 8 -10 11 -10 2 0 4 5 4 10 0 6 -5 10 -11 10 -5 0 -7
-4 -4 -10z"/>
<path d="M4580 1379 c0 -5 5 -7 10 -4 6 3 10 8 10 11 0 2 -4 4 -10 4 -5 0 -10
-5 -10 -11z"/>
<path d="M4666 1368 c3 -5 10 -6 15 -3 13 9 11 12 -6 12 -8 0 -12 -4 -9 -9z"/>
<path d="M950 880 c-12 -7 -10 -9 7 -7 12 0 19 5 17 9 -6 10 -6 10 -24 -2z"/>
<path d="M1874 780 c0 -13 4 -16 10 -10 7 7 7 13 0 20 -6 6 -10 3 -10 -10z"/>
<path d="M2870 700 c0 -5 5 -10 11 -10 5 0 7 5 4 10 -3 6 -8 10 -11 10 -2 0
-4 -4 -4 -10z"/>
<path d="M1377 613 c-10 -9 -9 -23 1 -23 5 0 9 7 9 15 0 17 -1 18 -10 8z"/>
<path d="M1440 516 c0 -2 8 -10 18 -17 15 -13 16 -12 3 4 -13 16 -21 21 -21
13z"/>
<path d="M2189 503 c-13 -16 -12 -17 4 -4 16 13 21 21 13 21 -2 0 -10 -8 -17
-17z"/>
<path d="M2605 130 c-3 -6 1 -7 9 -4 18 7 21 14 7 14 -6 0 -13 -4 -16 -10z"/>
</g>
</svg>
